<?xml version="1.0" encoding="iso-8859-1"?>
<!-- Generator: Adobe Illustrator 18.0.0, SVG Export Plug-In . SVG Version: 6.00 Build 0)  -->
<!DOCTYPE svg PUBLIC "-//W3C//DTD SVG 1.1//EN" "http://www.w3.org/Graphics/SVG/1.1/DTD/svg11.dtd">
<svg version="1.1" id="Capa_1" xmlns="http://www.w3.org/2000/svg" xmlns:xlink="http://www.w3.org/1999/xlink" x="0px" y="0px"
	 viewBox="0 0 58.977 58.977" style="enable-background:new 0 0 58.977 58.977;" xml:space="preserve">
<g>
	<circle style="fill:#26B99A;" cx="11" cy="47.968" r="11"/>
	<path style="fill:#7383BF;" d="M33.5,50.968c-0.102,0-0.203-0.003-0.305-0.007l-0.165-0.005c-0.552-0.011-0.991-0.468-0.98-1.02
		c0.011-0.546,0.456-0.98,1-0.98c0.006,0,0.013,0,0.02,0l0.431,0.012c0.177,0,0.353-0.002,0.528-0.006c0.008,0,0.015,0,0.021,0
		c0.543,0,0.988,0.434,1,0.979c0.012,0.553-0.427,1.01-0.979,1.021C33.882,50.966,33.69,50.968,33.5,50.968z M38.021,50.552
		c-0.472,0-0.892-0.335-0.981-0.815c-0.103-0.543,0.255-1.065,0.798-1.167c0.316-0.06,0.631-0.126,0.942-0.196
		c0.537-0.119,1.074,0.217,1.196,0.755c0.121,0.539-0.217,1.074-0.755,1.196c-0.337,0.076-0.675,0.146-1.015,0.21
		C38.144,50.546,38.081,50.552,38.021,50.552z M42.811,49.136c-0.394,0-0.767-0.233-0.925-0.62c-0.21-0.512,0.034-1.096,0.545-1.305
		c0.297-0.122,0.59-0.25,0.88-0.384c0.505-0.232,1.097-0.012,1.327,0.489c0.231,0.502,0.012,1.096-0.489,1.327
		c-0.315,0.146-0.636,0.285-0.958,0.417C43.065,49.113,42.937,49.136,42.811,49.136z M47.211,46.775c-0.321,0-0.637-0.154-0.83-0.44
		c-0.309-0.458-0.188-1.079,0.27-1.389c0.265-0.179,0.525-0.362,0.783-0.553c0.444-0.328,1.07-0.233,1.398,0.211
		s0.233,1.07-0.211,1.398c-0.279,0.206-0.563,0.407-0.852,0.602C47.598,46.72,47.403,46.775,47.211,46.775z M51.039,43.574
		c-0.252,0-0.504-0.095-0.698-0.284c-0.396-0.386-0.403-1.019-0.018-1.414c0.223-0.229,0.441-0.462,0.655-0.7
		c0.369-0.41,1.004-0.445,1.412-0.076c0.411,0.369,0.445,1.001,0.076,1.412c-0.233,0.26-0.47,0.513-0.712,0.761
		C51.559,43.473,51.299,43.574,51.039,43.574z M54.143,39.668c-0.185,0-0.372-0.051-0.539-0.158c-0.465-0.298-0.6-0.917-0.302-1.382
		c0.172-0.269,0.339-0.541,0.5-0.816c0.279-0.479,0.893-0.637,1.368-0.358c0.477,0.279,0.637,0.892,0.358,1.368
		c-0.175,0.299-0.355,0.595-0.543,0.887C54.795,39.506,54.472,39.668,54.143,39.668z M56.392,35.217
		c-0.119,0-0.24-0.021-0.358-0.066c-0.516-0.198-0.773-0.776-0.575-1.292c0.114-0.297,0.222-0.598,0.323-0.901
		c0.176-0.521,0.74-0.802,1.268-0.629c0.523,0.177,0.805,0.743,0.629,1.268c-0.111,0.329-0.229,0.655-0.353,0.979
		C57.173,34.972,56.794,35.217,56.392,35.217z M57.687,30.399c-0.053,0-0.105-0.004-0.159-0.013
		c-0.546-0.088-0.917-0.601-0.829-1.146c0.051-0.315,0.095-0.633,0.133-0.952c0.066-0.548,0.562-0.94,1.113-0.873
		c0.548,0.066,0.938,0.564,0.873,1.113c-0.042,0.345-0.09,0.688-0.145,1.028C58.595,30.05,58.17,30.399,57.687,30.399z M9,26.494
		c-0.553,0-1-0.421-1-0.974c0-0.383,0.006-0.71,0.019-1.037c0.021-0.553,0.495-0.99,1.036-0.962
		c0.552,0.021,0.982,0.484,0.962,1.036C10.006,24.859,10,25.163,10,25.468C10,26.02,9.553,26.494,9,26.494z M57.977,25.417
		c-0.533,0-0.977-0.421-0.998-0.959c-0.014-0.319-0.033-0.638-0.06-0.954c-0.047-0.55,0.36-1.034,0.911-1.081
		c0.539-0.062,1.034,0.36,1.081,0.911c0.03,0.346,0.052,0.693,0.065,1.042c0.022,0.552-0.406,1.018-0.958,1.04
		C58.005,25.417,57.99,25.417,57.977,25.417z M9.493,21.555c-0.065,0-0.133-0.006-0.199-0.02c-0.541-0.11-0.892-0.638-0.782-1.179
		c0.069-0.342,0.146-0.681,0.229-1.016c0.131-0.536,0.675-0.867,1.209-0.732c0.536,0.131,0.864,0.673,0.732,1.209
		c-0.075,0.31-0.146,0.621-0.209,0.936C10.376,21.228,9.959,21.555,9.493,21.555z M57.263,20.479c-0.448,0-0.855-0.303-0.969-0.758
		c-0.078-0.31-0.162-0.616-0.252-0.921c-0.158-0.529,0.144-1.086,0.673-1.243c0.531-0.158,1.086,0.144,1.243,0.673
		c0.1,0.332,0.191,0.668,0.275,1.007c0.135,0.535-0.191,1.078-0.728,1.212C57.425,20.47,57.343,20.479,57.263,20.479z
		 M10.984,16.793c-0.133,0-0.267-0.026-0.396-0.082c-0.507-0.219-0.74-0.807-0.521-1.314c0.137-0.317,0.28-0.633,0.43-0.943
		c0.238-0.497,0.834-0.71,1.334-0.469c0.498,0.239,0.708,0.837,0.469,1.334c-0.138,0.287-0.27,0.577-0.396,0.871
		C11.739,16.567,11.371,16.793,10.984,16.793z M55.558,15.788c-0.372,0-0.729-0.208-0.901-0.564
		c-0.14-0.289-0.285-0.573-0.437-0.855c-0.261-0.487-0.077-1.093,0.41-1.354c0.487-0.26,1.093-0.077,1.354,0.41
		c0.163,0.306,0.322,0.615,0.474,0.928c0.24,0.497,0.032,1.096-0.465,1.336C55.852,15.756,55.703,15.788,55.558,15.788z
		 M13.41,12.437c-0.198,0-0.397-0.059-0.572-0.181c-0.453-0.316-0.563-0.94-0.246-1.393c0.199-0.285,0.404-0.564,0.614-0.841
		c0.337-0.438,0.963-0.522,1.402-0.188c0.438,0.336,0.522,0.963,0.188,1.402c-0.194,0.253-0.382,0.511-0.565,0.772
		C14.036,12.289,13.726,12.437,13.41,12.437z M52.932,11.542c-0.301,0-0.598-0.135-0.794-0.392
		c-0.195-0.253-0.396-0.502-0.601-0.747c-0.354-0.424-0.298-1.055,0.126-1.409c0.426-0.354,1.056-0.296,1.409,0.126
		c0.223,0.267,0.44,0.537,0.651,0.813c0.337,0.438,0.254,1.065-0.185,1.401C53.358,11.474,53.144,11.542,52.932,11.542z
		 M16.672,8.661c-0.265,0-0.529-0.104-0.726-0.313c-0.38-0.4-0.363-1.033,0.038-1.413c0.252-0.239,0.509-0.473,0.771-0.7
		c0.415-0.362,1.047-0.32,1.411,0.097c0.363,0.417,0.319,1.048-0.097,1.411c-0.24,0.21-0.478,0.424-0.71,0.644
		C17.166,8.57,16.919,8.661,16.672,8.661z M49.502,7.915c-0.232,0-0.465-0.08-0.654-0.243c-0.24-0.208-0.486-0.412-0.735-0.609
		c-0.434-0.342-0.507-0.971-0.164-1.404c0.342-0.434,0.971-0.508,1.404-0.164c0.272,0.215,0.54,0.437,0.804,0.664
		c0.417,0.361,0.464,0.993,0.103,1.411C50.061,7.798,49.782,7.915,49.502,7.915z M20.629,5.618c-0.335,0-0.662-0.168-0.852-0.474
		c-0.29-0.47-0.146-1.086,0.324-1.377c0.296-0.183,0.595-0.359,0.897-0.53c0.482-0.272,1.092-0.101,1.362,0.38
		c0.271,0.481,0.102,1.091-0.38,1.362c-0.279,0.157-0.555,0.32-0.827,0.489C20.99,5.57,20.809,5.618,20.629,5.618z M45.413,5.054
		c-0.165,0-0.332-0.041-0.487-0.127c-0.277-0.155-0.559-0.305-0.842-0.447c-0.494-0.249-0.692-0.85-0.444-1.343
		c0.248-0.494,0.852-0.692,1.343-0.444c0.311,0.156,0.617,0.319,0.92,0.488c0.481,0.27,0.654,0.879,0.385,1.361
		C46.104,4.87,45.764,5.054,45.413,5.054z M25.119,3.439c-0.407,0-0.79-0.25-0.938-0.655c-0.19-0.519,0.075-1.093,0.594-1.283
		c0.327-0.12,0.657-0.232,0.991-0.339c0.523-0.168,1.088,0.124,1.256,0.65c0.167,0.526-0.124,1.088-0.65,1.256
		c-0.305,0.097-0.607,0.199-0.907,0.31C25.351,3.42,25.233,3.439,25.119,3.439z M40.832,3.083c-0.099,0-0.2-0.015-0.3-0.046
		c-0.304-0.096-0.611-0.185-0.921-0.268c-0.533-0.144-0.85-0.692-0.706-1.226s0.695-0.849,1.226-0.706
		c0.337,0.091,0.67,0.188,1.001,0.291c0.526,0.165,0.819,0.727,0.654,1.254C41.652,2.809,41.258,3.083,40.832,3.083z M29.96,2.221
		c-0.488,0-0.916-0.358-0.988-0.855c-0.08-0.547,0.299-1.055,0.845-1.134c0.343-0.05,0.688-0.093,1.034-0.129
		c0.556-0.051,1.041,0.343,1.098,0.893c0.056,0.55-0.344,1.041-0.893,1.098c-0.319,0.032-0.637,0.071-0.95,0.117
		C30.057,2.219,30.008,2.221,29.96,2.221z M35.944,2.088c-0.032,0-0.065-0.002-0.099-0.005c-0.316-0.031-0.636-0.057-0.958-0.075
		c-0.551-0.032-0.972-0.505-0.939-1.057C33.979,0.4,34.43-0.02,35.005,0.011c0.348,0.021,0.692,0.048,1.036,0.081
		c0.549,0.054,0.951,0.543,0.897,1.092C36.889,1.702,36.453,2.088,35.944,2.088z"/>
	<path style="fill:#7383BF;" d="M21,20.968c-9.389,0-17,7.611-17,17c0,0.492,0.034,0.975,0.08,1.454
		c1.891-1.533,4.297-2.454,6.92-2.454c6.075,0,11,4.925,11,11c0,2.623-0.922,5.03-2.454,6.92c0.48,0.045,0.963,0.08,1.454,0.08
		c9.389,0,17-7.611,17-17S30.389,20.968,21,20.968z"/>
</g>
<g>
</g>
<g>
</g>
<g>
</g>
<g>
</g>
<g>
</g>
<g>
</g>
<g>
</g>
<g>
</g>
<g>
</g>
<g>
</g>
<g>
</g>
<g>
</g>
<g>
</g>
<g>
</g>
<g>
</g>
</svg>
